<svg width="44" height="44" viewBox="0 0 44 44" fill="none" xmlns="http://www.w3.org/2000/svg">
<rect width="44" height="44" rx="10" fill="url(#paint0_linear_1_2954)"/>
<rect x="0.5" y="0.5" width="43" height="43" rx="9.5" stroke="url(#paint1_linear_1_2954)" stroke-opacity="0.6" style="mix-blend-mode:overlay"/>
<path d="M16.3486 21.6543C16.3486 21.9619 16.4629 22.2256 16.709 22.4541L23.5469 29.1514C23.7402 29.3447 23.9863 29.4502 24.2764 29.4502C24.8564 29.4502 25.3223 28.9932 25.3223 28.4043C25.3223 28.1143 25.1992 27.8594 25.0059 27.6572L18.8447 21.6543L25.0059 15.6514C25.1992 15.4492 25.3223 15.1855 25.3223 14.9043C25.3223 14.3154 24.8564 13.8584 24.2764 13.8584C23.9863 13.8584 23.7402 13.9639 23.5469 14.1572L16.709 20.8457C16.4629 21.083 16.3486 21.3467 16.3486 21.6543Z" fill="#FBFBFF"/>
<defs>
<linearGradient id="paint0_linear_1_2954" x1="2.2" y1="-2.33764e-07" x2="32.8464" y2="59.4315" gradientUnits="userSpaceOnUse">
<stop stop-color="#34C8E8"/>
<stop offset="1" stop-color="#4E4AF2"/>
</linearGradient>
<linearGradient id="paint1_linear_1_2954" x1="0" y1="0" x2="24.9884" y2="52.9688" gradientUnits="userSpaceOnUse">
<stop stop-color="white"/>
<stop offset="1"/>
</linearGradient>
</defs>
</svg>
