<svg width="24" height="24" viewBox="0 0 24 24" fill="none" xmlns="http://www.w3.org/2000/svg">
<rect width="24" height="24" rx="5" fill="#353F54"/>
<rect x="0.25" y="0.25" width="23.5" height="23.5" rx="4.75" stroke="url(#paint0_linear_1_1429)" stroke-opacity="0.2" stroke-width="0.5"/>
<path d="M19 11H5C4.73478 11 4.48043 11.1054 4.29289 11.2929C4.10536 11.4804 4 11.7348 4 12C4 12.2652 4.10536 12.5196 4.29289 12.7071C4.48043 12.8946 4.73478 13 5 13H19C19.2652 13 19.5196 12.8946 19.7071 12.7071C19.8946 12.5196 20 12.2652 20 12C20 11.7348 19.8946 11.4804 19.7071 11.2929C19.5196 11.1054 19.2652 11 19 11Z" fill="white" fill-opacity="0.6"/>
<defs>
<linearGradient id="paint0_linear_1_1429" x1="1.5" y1="1.5" x2="11.4836" y2="14.0833" gradientUnits="userSpaceOnUse">
<stop stop-color="white"/>
<stop offset="1"/>
</linearGradient>
</defs>
</svg>
